Patient4_TMGait_0pt6_02_right_30_EMG.mot
version=1
nRows=13
nColumns=33
inDegrees=no
endheader
time	1LAddLong	2LGlutMax	3LGlutMed	4LIliopsoas	5LSemiMemb	6LBicFemLong	7LRecFem	8LVastMed	9LVastLat	10LGasMed	11LTibAnt	12lTibPost	13LPeroneusLong	14LSol	15LExtDigLong	16LFlexDigLong	17RAddLong	18RGlutMax	19RGlutMed	20RIliopsoas	21RSemiMemb	22RBicFemLong	23RRecFem	24RVastMed	25RVastLat	26RGasMed	27RTibAnt	28RTibPost	29RPeroneusLong	30RSol	31RExtDigLong	32RFlexDigLong
36.945	0.038757	0.13641	0.14664	0.008698	0.12894	0.10849	0.024719	-0.013428	-0.014648	0.18036	0.008545	0.005646	0.20584	-0.086517	0.020447	0.02121	0.042877	0.20035	-0.2919	0.42129	-0.017548	0.11261	0.12695	-0.098419	0.029602	0.03067	-0.36011	0	0.010529	0.25299	-0.000916	-0.025024
36.946	0.029602	0.13443	0.075836	0.037689	0.07431	0.090485	-0.029297	-0.023651	-0.034943	0.040741	-0.02533	0.004883	0.19104	-0.04364	0.039368	0.028687	0.036926	0.14374	-0.33936	0.3804	0.045776	-0.092468	0.12177	-0.093994	0.012207	0.018311	-0.14679	-0.003967	0.016327	0.22781	-0.00412	-0.027771
36.947	-0.000458	0.13565	0.036926	0.033569	-0.050659	0.15228	-0.063324	-0.013428	0.088501	-0.15198	-0.02533	0.009003	0.053101	-0.055542	0.16296	0.043793	0.059967	0.23865	-0.21591	0.11749	-0.052032	-0.25696	0.067444	-0.11749	0.021362	0.004883	-0.084534	-0.005035	0.067444	0.17136	0.004883	-0.022888
36.948	-0.00824	0.096283	0.041809	0.006866	-0.13977	0.24094	-0.11215	0.00946	0.25452	-0.30151	0.004578	0.015411	0.059509	-0.094604	0.22125	0.039215	0.067139	0.25574	-0.18188	-0.15289	-0.017395	-0.27039	0.051575	-0.13718	0.036011	0.002289	-0.078583	-0.004578	0.17044	0.13245	-0.002136	-0.021362
36.949	-0.012207	0.054932	0.039825	-0.017548	-0.20355	0.34317	-0.042419	0.023804	0.19882	-0.18814	0.045013	0.011139	-0.014343	-0.10803	0.19836	0.06073	0.040131	0.24811	-0.16068	-0.2739	-0.098114	-0.27359	0.030518	-0.13825	0.042419	0.000153	-0.093231	-0.005798	0.22964	0.10376	-0.000916	-0.014038
36.95	0.007019	0.03006	-0.024261	0.004272	-0.17593	0.32852	-0.020447	0.015106	-0.003662	-0.099945	0.030975	0.014801	0.12268	-0.053864	0.19608	0.066071	0.07843	0.27527	-0.19394	-0.2179	-0.085907	-0.45593	0.059509	-0.13473	0.011444	-0.02182	-0.028534	-0.016022	-0.033112	0.15701	0.000153	-0.02243
36.951	0.030518	0.031891	-0.008392	0.02121	-0.046844	0.29404	-0.047607	0.000458	-0.16892	-0.042725	-0.027008	0.009766	0.60608	-0.071869	0.1358	0.072174	0.11841	0.32852	-0.22827	-0.094452	-0.22125	-0.46906	0.008392	0.041046	0.020447	-0.025024	0.008392	-0.011444	-0.14435	0.12741	-0.005341	-0.01358
36.952	0.021667	0.020752	-0.004578	0.006866	0.084229	0.31021	-0.046234	0.032806	-0.062256	0.13214	-0.013123	0.011597	0.33691	-0.079041	0.11261	0.064545	0.092163	0.30456	-0.27802	0.099335	-0.26703	-0.23544	-0.099945	0.11276	0.061188	-0.013733	0.007782	-0.016632	-0.13534	0.15076	-0.00412	-0.017395
36.953	0.01358	-0.011749	0.001526	0.005035	0.10971	0.43259	-0.004272	0.04776	-0.081329	0.23834	-0.011749	0.011444	-0.12726	-0.036926	0.087891	0.047913	0.13382	0.15533	-0.1796	0.19058	-0.16541	-0.065308	-0.055542	0.066528	0.040741	0.005341	0.004883	-0.00473	-0.20981	0.29587	-0.000916	-0.015717
36.954	-0.003662	-0.13321	-0.14099	-0.008392	0.091705	0.36529	-0.034332	0.049133	-0.20447	0.12909	-0.010071	0.00473	-0.42007	0.009003	0.08194	0.012817	0.043335	0.14358	-0.20691	0.22919	0.017242	0.1796	-0.084381	0.14801	0.040436	0.001831	0.008545	-0.018158	-0.19363	0.26688	-0.004425	-0.016174
36.955	-0.003204	-0.33127	-0.28061	-0.003967	0.049591	0.29648	-0.11154	0.03418	-0.075378	0.042725	-0.007629	0.004578	-0.53131	-0.040741	0.031738	0.04776	-0.044403	0.20416	-0.21561	0.18814	0.26627	0.22903	-0.12283	0.233	0.046082	-0.005188	0.041046	-0.000763	-0.17227	0.17456	-0.003815	-0.026703
36.956	-0.001373	-0.41534	-0.31647	0.014496	0.033264	0.11032	-0.18021	0.022888	0.023651	0.0383	0.001526	0.001678	-0.58716	-0.090332	-0.019226	0.16022	-0.055695	0.21622	-0.23544	0.063934	0.53543	0.29648	-0.038452	0.17441	0.031433	0.006714	0.074005	0.006104	-0.26688	0.29129	-0.003052	-0.02533
36.957	-0.006714	-0.49332	-0.26657	0.005188	-0.016785	-0.19653	-0.14999	-0.009766	0.081329	0.017395	-0.002441	0.007172	-0.056152	-0.16068	-0.035706	0.080872	-0.027466	0.15442	-0.17075	-0.026398	0.38559	0.27161	0.002594	0.09079	-0.002289	0.012817	0.043182	0.010681	-0.17197	0.21912	-0.005341	-0.032196
